Coordinates
version=1
nRows=29
nColumns=22
inDegrees=yes

Units are S.I. units (second, meters, Newtons, ...)
If the header above contains a line with 'inDegrees', this indicates whether rotational values are in degrees (yes) or radians (no).

endheader
time	pelvis_tilt	pelvis_list	pelvis_rotation	pelvis_tx	pelvis_ty	pelvis_tz	hip_flexion_r	hip_adduction_r	hip_rotation_r	knee_angle_r	ankle_angle_r	subtalar_angle_r	hip_flexion_l	hip_adduction_l	hip_rotation_l	knee_angle_l	ankle_angle_l	subtalar_angle_l	lumbar_extension	lumbar_bending	lumbar_rotation
      0.01000000	      3.95421433	      8.33886377	    184.57312984	      0.19813303	      0.97454756	      1.07707376	      8.34324987	      9.05681885	     -5.84375291	    -15.26510218	      9.99695843	      2.21279340	      5.87147904	     -8.14738547	      0.90153117	     -9.97144500	     11.59798957	     -1.54227147	      3.51530740	      5.89261655	     -9.22833189
      0.02000000	      3.96336771	      8.32976384	    184.53302946	      0.19823295	      0.97453825	      1.07688245	      8.36276882	      9.06324033	     -5.82588648	    -15.25796465	      9.91026848	      2.17664876	      5.88916463	     -8.14850439	      0.87219261	     -9.98944515	     11.59874828	     -1.53921922	      3.51020753	      5.88734466	     -9.22593860
      0.03000000	      3.98795792	      8.32728926	    184.46986792	      0.19836593	      0.97450141	      1.07661918	      8.40954601	      9.08747400	     -5.76847780	    -15.26410090	      9.79815106	      1.94829814	      5.92586421	     -8.16066174	      0.82028254	    -10.01491726	     11.60378609	     -1.54024678	      3.51560536	      5.89000306	     -9.21775961
      0.04000000	      3.99997374	      8.30935321	    184.42096294	      0.19849406	      0.97448060	      1.07637025	      8.44260923	      9.09441067	     -5.74573171	    -15.26658719	      9.65652691	      1.67368343	      5.94705955	     -8.15531312	      0.78830355	    -10.03521417	     11.60005051	     -1.54856253	      3.50474112	      5.87778828	     -9.22520122
      0.05000000	      4.01030661	      8.29033412	    184.36369875	      0.19862789	      0.97445867	      1.07610116	      8.47639689	      9.10280983	     -5.70789360	    -15.27340074	      9.51194744	      1.41781010	      5.96717048	     -8.15104323	      0.74376575	    -10.05886997	     11.60514122	     -1.56031755	      3.48877225	      5.86654913	     -9.22403529
      0.06000000	      4.01635515	      8.26677365	    184.31026822	      0.19875720	      0.97444148	      1.07583462	      8.50739959	      9.10718681	     -5.67269545	    -15.28496231	      9.36530532	      1.12368141	      5.98280499	     -8.14147691	      0.70793173	    -10.08295024	     11.60950222	     -1.57119683	      3.46689649	      5.85084452	     -9.22718393
      0.07000000	      4.01705148	      8.24463711	    184.25706160	      0.19888603	      0.97442698	      1.07557507	      8.53229518	      9.11329612	     -5.62998172	    -15.29855450	      9.23341390	      0.86287915	      5.99519126	     -8.13341142	      0.66865090	    -10.11142427	     11.61662538	     -1.58047974	      3.43867942	      5.83889200	     -9.22924925
      0.08000000	      4.00325481	      8.22105904	    184.22664998	      0.19903213	      0.97442836	      1.07536203	      8.55014496	      9.10798628	     -5.60750045	    -15.32961589	      9.15854024	      0.83921583	      6.00064382	     -8.12073907	      0.67389001	    -10.14547851	     11.62576273	     -1.58332267	      3.39253354	      5.82712769	     -9.25229857
      0.09000000	      3.99872294	      8.20270287	    184.15483920	      0.19913971	      0.97442746	      1.07508200	      8.56050997	      9.12293566	     -5.52649575	    -15.33746825	      9.03751295	      0.48191866	      6.01364843	     -8.12029705	      0.59593874	    -10.19256372	     11.64326765	     -1.59363139	      3.36075987	      5.82007383	     -9.22009429
      0.10000000	      3.97869815	      8.18245436	    184.13296474	      0.19927353	      0.97444397	      1.07489436	      8.56478295	      9.11807967	     -5.50629844	    -15.36285445	      8.99176136	      0.46091145	      6.02385691	     -8.10881470	      0.61326281	    -10.24459174	     11.64698756	     -1.59480380	      3.31195846	      5.81037276	     -9.23580503
      0.11000000	      3.95543447	      8.16059666	    184.09470096	      0.19936298	      0.97447023	      1.07469397	      8.54633578	      9.11513439	     -5.46998532	    -15.36151904	      8.93611907	      0.35732007	      6.04038168	     -8.09926509	      0.57143701	    -10.32484811	     11.68035134	     -1.60059510	      3.26647875	      5.79991717	     -9.22754171
      0.12000000	      3.93527411	      8.15014754	    184.06718540	      0.19949305	      0.97449622	      1.07451663	      8.55007482	      9.11966739	     -5.43238449	    -15.39207973	      8.91847974	      0.33302481	      6.05054174	     -8.09779010	      0.58769853	    -10.37601331	     11.67610719	     -1.59935422	      3.21830125	      5.80386013	     -9.23241999
      0.13000000	      3.91290317	      8.13505527	    184.02303106	      0.19956388	      0.97452748	      1.07432698	      8.52547988	      9.12301728	     -5.37972916	    -15.38548236	      8.89535895	      0.25037223	      6.07205061	     -8.09564219	      0.53308254	    -10.46582843	     11.71571365	     -1.60110680	      3.17541110	      5.80276521	     -9.21093558
      0.14000000	      3.89559046	      8.12476973	    183.99671770	      0.19966966	      0.97455843	      1.07417810	      8.52162167	      9.12405454	     -5.35014160	    -15.40194521	      8.88390841	      0.23213297	      6.08878046	     -8.09284564	      0.54774505	    -10.52501076	     11.71129252	     -1.59864449	      3.13445424	      5.80751009	     -9.20381462
      0.15000000	      3.88407159	      8.11432237	    183.95905189	      0.19973957	      0.97457743	      1.07402884	      8.50610116	      9.12677902	     -5.30833777	    -15.39169018	      8.87262020	      0.18158205	      6.12409627	     -8.09215429	      0.50251749	    -10.61454862	     11.74805578	     -1.59659116	      3.10452089	      5.81336687	     -9.18896971
      0.16000000	      3.87245562	      8.10428244	    183.93474357	      0.19981809	      0.97460470	      1.07390927	      8.49818644	      9.12551794	     -5.28941241	    -15.39457217	      8.86512565	      0.17072320	      6.14931230	     -8.08776324	      0.51622213	    -10.68079351	     11.74496990	     -1.59485503	      3.07554859	      5.81873476	     -9.17519826
      0.17000000	      3.87684380	      8.09983823	    183.90380913	      0.19989858	      0.97460199	      1.07377678	      8.49813480	      9.13187498	     -5.25996531	    -15.37898467	      8.85422759	      0.13893678	      6.20728868	     -8.09149915	      0.47714400	    -10.77433957	     11.78325496	     -1.59594549	      3.06192228	      5.82765965	     -9.16851829
      0.18000000	      3.87412472	      8.09305297	    183.88253095	      0.19997221	      0.97461328	      1.07367996	      8.49236778	      9.13154670	     -5.25042308	    -15.36866580	      8.84840648	      0.12974111	      6.24344132	     -8.08852913	      0.49051356	    -10.84124065	     11.78054636	     -1.59547912	      3.04136092	      5.83466915	     -9.14514900
      0.19000000	      3.89552274	      8.09800396	    183.85245006	      0.20004989	      0.97458662	      1.07357136	      8.50833773	      9.14512679	     -5.22553199	    -15.34917138	      8.83116644	      0.10109125	      6.32166399	     -8.09897839	      0.45828369	    -10.93712482	     11.81673944	     -1.60111350	      3.04697354	      5.85457389	     -9.14210211
      0.20000000	      3.90136018	      8.09321565	    183.83196522	      0.20011341	      0.97458822	      1.07348750	      8.50443227	      9.14534604	     -5.22421921	    -15.32592900	      8.82779581	      0.09327069	      6.35968843	     -8.09714497	      0.47246572	    -10.99222513	     11.81049905	     -1.60164903	      3.03224798	      5.86277565	     -9.11534376
      0.21000000	      3.93413105	      8.10306261	    183.80262664	      0.20018751	      0.97454934	      1.07339496	      8.52690664	      9.16291376	     -5.19564849	    -15.29688011	      8.80475907	      0.06685324	      6.44063001	     -8.11110224	      0.44607084	    -11.07146154	     11.83509046	     -1.61072236	      3.04459340	      5.88820682	     -9.11726543
      0.22000000	      3.94774164	      8.09867010	    183.78407255	      0.20023375	      0.97454226	      1.07333548	      8.52416244	      9.16209700	     -5.19811747	    -15.26376364	      8.80415503	      0.05983460	      6.47368566	     -8.10752460	      0.45486765	    -11.10540952	     11.82732728	     -1.61192315	      3.03323514	      5.89776031	     -9.09501525
      0.23000000	      3.96959671	      8.09653663	    183.76517499	      0.20028285	      0.97452551	      1.07328481	      8.52376353	      9.16446312	     -5.18256016	    -15.21983708	      8.79428635	      0.05079151	      6.51770915	     -8.10595183	      0.44518899	    -11.14175077	     11.82526948	     -1.61691564	      3.02716187	      5.90960426	     -9.09311284
      0.24000000	      4.00909445	      8.10571733	    183.73777728	      0.20034846	      0.97448364	      1.07323611	      8.55081918	      9.17858578	     -5.14990004	    -15.18859990	      8.76963139	      0.02778902	      6.57459864	     -8.11599414	      0.42751704	    -11.16833519	     11.83201348	     -1.62956351	      3.03637130	      5.93686830	     -9.09679732
      0.25000000	      4.03110442	      8.10034705	    183.72447555	      0.20037415	      0.97446473	      1.07322070	      8.55161845	      9.17355855	     -5.15425721	    -15.14934617	      8.77148393	      0.02242624	      6.59605256	     -8.10904837	      0.42124400	    -11.16758070	     11.82953294	     -1.63286366	      3.02690357	      5.94443934	     -9.09731227
      0.26000000	      4.05784724	      8.09569745	    183.71140156	      0.20040479	      0.97444105	      1.07321908	      8.55771486	      9.16956576	     -5.14106699	    -15.11029819	      8.76403544	      0.01616342	      6.61936412	     -8.10200167	      0.41021357	    -11.16050962	     11.82577469	     -1.63853526	      3.02074949	      5.95436196	     -9.11167456
      0.27000000	      4.08557490	      8.09240548	    183.69754634	      0.20042727	      0.97441541	      1.07322347	      8.56807413	      9.16615566	     -5.13144283	    -15.07754958	      8.75744543	      0.01044043	      6.63723431	     -8.09604626	      0.40019534	    -11.14387594	     11.82309155	     -1.64394767	      3.01499051	      5.96386798	     -9.12124531
      0.28000000	      4.11394928	      8.08888936	    183.68599281	      0.20044127	      0.97438690	      1.07324622	      8.58135395	      9.16081238	     -5.12137729	    -15.04992689	      8.75123710	      0.00470963	      6.65236336	     -8.08871493	      0.38988729	    -11.12069549	     11.81978095	     -1.64869024	      3.00976052	      5.97251742	     -9.13001111
      0.29000000	      4.14481679	      8.08424731	    183.67591098	      0.20044776	      0.97435631	      1.07327672	      8.59848239	      9.15366101	     -5.11114337	    -15.02483063	      8.74492561	     -0.00204148	      6.66623511	     -8.07953738	      0.38000262	    -11.09134882	     11.81499474	     -1.65292175	      3.00776005	      5.97827211	     -9.13700991
